<svg width="198" height="199" viewBox="0 0 198 199" fill="none" xmlns="http://www.w3.org/2000/svg">
<path d="M99.0101 0.78894H98.5604C44.1438 0.78894 0.0305176 44.9153 0.0305176 99.3479V99.7978C0.0305176 154.23 44.1438 198.357 98.5604 198.357H99.0101C153.427 198.357 197.54 154.23 197.54 99.7978V99.3479C197.54 44.9153 153.427 0.78894 99.0101 0.78894Z" fill="#5865F2"/>
<path d="M148.21 54.218C139.117 50.0442 129.374 46.9709 119.181 45.2128C118.995 45.1782 118.808 45.2613 118.718 45.4343C117.465 47.6631 116.074 50.5772 115.106 52.8614C104.145 51.2209 93.2393 51.2209 82.4999 52.8614C81.5242 50.5218 80.0849 47.6631 78.8255 45.4343C78.7286 45.2682 78.5418 45.1851 78.3619 45.2128C68.1761 46.9709 58.4262 50.0442 49.3337 54.218C49.2576 54.2526 49.1884 54.308 49.1399 54.3841C30.6504 82.0158 25.5851 108.969 28.0692 135.59C28.0831 135.722 28.1523 135.846 28.2561 135.922C40.4556 144.886 52.2746 150.327 63.872 153.933C64.0589 153.988 64.2526 153.919 64.3703 153.767C67.1105 150.022 69.5601 146.07 71.6567 141.91C71.7813 141.668 71.6567 141.377 71.4076 141.28C67.5256 139.806 63.8373 138.013 60.2806 135.978C59.9969 135.812 59.9762 135.41 60.2323 135.216C60.9796 134.656 61.7269 134.074 62.4396 133.486C62.5711 133.375 62.751 133.355 62.9032 133.424C86.2434 144.083 111.514 144.083 134.578 133.424C134.73 133.348 134.91 133.375 135.041 133.479C135.754 134.067 136.501 134.656 137.256 135.216C137.512 135.41 137.498 135.812 137.214 135.978C133.664 138.054 129.969 139.813 126.08 141.28C125.824 141.377 125.713 141.668 125.838 141.917C127.983 146.063 130.426 150.015 133.118 153.767C133.228 153.926 133.429 153.995 133.616 153.94C145.269 150.334 157.088 144.893 169.287 135.929C169.391 135.853 169.46 135.729 169.474 135.604C172.449 104.83 164.492 78.0981 148.389 54.398C148.348 54.3218 148.286 54.2595 148.203 54.2249L148.21 54.218ZM75.1303 119.379C68.0998 119.379 62.3151 112.928 62.3151 105.003C62.3151 97.0776 67.9961 90.6265 75.1303 90.6265C82.2645 90.6265 88.0633 97.1399 87.9456 105.003C87.9456 112.928 82.2645 119.379 75.1303 119.379ZM122.523 119.379C115.493 119.379 109.708 112.928 109.708 105.003C109.708 97.0776 115.389 90.6265 122.523 90.6265C129.658 90.6265 135.456 97.1399 135.339 105.003C135.339 112.928 129.72 119.379 122.523 119.379Z" fill="white"/>
</svg>
