<svg width="199" height="198" viewBox="0 0 199 198" fill="none" xmlns="http://www.w3.org/2000/svg">
<path d="M99.3576 0.0303955H99.8074C154.189 0.0303955 198.337 44.1912 198.337 98.5894V99.0393C198.337 153.437 154.189 197.598 99.8074 197.598H99.3576C44.9755 197.598 0.827637 153.437 0.827637 99.0393V98.5894C0.827637 44.1912 44.9755 0.0303955 99.3576 0.0303955Z" fill="#FFFA00"/>
<path d="M130.482 80.7381C130.469 82.0602 130.33 83.3823 130.206 84.7043C130.164 85.1404 130.15 85.5834 130.143 86.0195C130.13 86.7739 130.732 87.4592 131.486 87.4107C131.846 87.3899 132.212 87.293 132.558 87.1754C133.714 86.767 134.856 86.3309 136.004 85.8948C137.042 85.4934 138.101 85.1335 139.174 84.8427C140.343 84.5243 141.513 84.289 142.703 84.4828C145.125 84.8774 146.702 87.4869 145.817 89.778C145.568 90.4217 145.187 90.9754 144.73 91.4876C144.101 92.1867 143.388 92.782 142.613 93.3081C141.699 93.9241 140.779 94.5263 139.859 95.1354C138.323 96.146 136.786 97.1496 135.257 98.174C134.62 98.5963 134.005 99.0462 133.403 99.51C133.071 99.7661 132.759 100.064 132.475 100.375C131.936 100.977 131.638 101.746 131.687 102.549C131.735 103.4 131.88 104.231 132.116 105.047C132.842 107.595 133.956 109.962 135.306 112.225C138.925 118.268 144.052 122.989 150.155 126.844C151.83 127.903 153.622 128.761 155.387 129.668C155.636 129.8 155.878 129.931 156.12 130.076C156.362 130.222 156.577 130.416 156.736 130.651C156.985 131.004 157.02 131.378 156.805 131.765C156.625 132.098 156.362 132.354 156.079 132.589C155.76 132.852 155.414 133.074 155.054 133.274C152.992 134.444 150.778 135.316 148.488 135.925C147.38 136.223 146.273 136.534 145.173 136.86C144.495 137.061 143.858 137.358 143.229 137.683C142.17 138.23 141.568 139.109 141.347 140.251C141.222 140.888 141.146 141.539 141.028 142.176C140.738 143.788 140.156 144.377 138.579 144.654C138.025 144.751 137.458 144.806 136.897 144.841C135.485 144.917 134.074 144.958 132.662 145.034C132.621 145.034 132.579 145.034 132.545 145.034C126.905 145.367 121.452 147.173 116.615 150.094C116.359 150.246 116.103 150.406 115.84 150.558C113.882 151.742 111.889 152.87 109.751 153.7C107.364 154.628 104.9 155.182 102.347 155.41C100.195 155.604 98.0498 155.576 95.9116 155.334C92.7077 154.974 89.6699 154.04 86.7983 152.572C85.4628 151.887 84.1757 151.126 82.9025 150.343C82.8333 150.302 82.7641 150.26 82.688 150.212C77.6089 147.118 71.8309 145.242 65.8869 145C65.8454 145 65.8039 145 65.7624 145C64.5168 144.951 63.2782 144.903 62.0326 144.827C61.3061 144.785 60.5795 144.688 59.8668 144.495C58.9603 144.245 58.3029 143.449 58.1299 142.529C58.033 142.023 57.9569 141.518 57.8669 141.013C57.8462 140.902 57.8461 140.784 57.8254 140.674C57.6178 139.192 56.8843 138.106 55.4934 137.476C54.6423 137.088 53.7705 136.777 52.8709 136.528C51.3209 136.098 49.757 135.718 48.2416 135.171C46.9061 134.693 45.619 134.126 44.3804 133.447C44.0067 133.247 43.6469 133.018 43.3009 132.783C43.0656 132.624 42.8442 132.444 42.6505 132.243C42.0277 131.592 42.09 130.741 42.7958 130.187C43.204 129.862 43.6815 129.647 44.1451 129.419C47.3766 127.834 50.4421 125.979 53.293 123.778C57.5971 120.462 61.2438 116.537 64.0047 111.81C64.9873 110.114 65.8038 108.328 66.475 106.487C66.9179 105.269 67.2778 104.051 67.3677 102.77C67.43 101.829 67.1116 100.894 66.4681 100.209C66.0045 99.7176 65.4648 99.3231 64.9181 98.9285C64.1016 98.3471 63.2782 97.7726 62.4478 97.2258C60.6625 96.0491 58.8703 94.8931 57.085 93.7234C56.3031 93.2111 55.5488 92.6574 54.8706 92.0137C54.3793 91.543 53.9365 91.0377 53.5836 90.4494C52.8501 89.2173 52.7948 87.9506 53.3414 86.6493C53.6666 85.8741 54.2756 85.2165 55.0368 84.8635C56.1232 84.3651 57.258 84.3028 58.3998 84.4897C59.6315 84.6905 60.8147 85.0712 61.9841 85.4934C63.1813 85.9225 64.3576 86.3932 65.5478 86.8431C66.1014 87.0508 66.6619 87.2584 67.25 87.3484C67.3884 87.3692 67.5269 87.4107 67.6653 87.4038C68.3503 87.383 68.9177 87.1615 68.9108 86.2409C68.9108 85.7979 68.897 85.348 68.8762 84.905C68.7724 82.6901 68.6409 80.4751 68.5856 78.2601C68.461 72.9858 68.4818 67.6906 69.8588 62.5685C70.703 59.433 72.1631 56.5189 74.1352 53.9302C78.2248 48.5519 83.6221 45.1395 90.0782 43.3191C93.6073 42.3224 97.2125 41.997 100.866 42.1078C104.319 42.2116 107.758 42.8 111.024 43.9351C114.899 45.2918 118.421 47.2576 121.418 50.0471C124.822 53.2172 127.445 56.9204 128.87 61.4057C129.514 63.4337 129.922 65.5103 130.171 67.6145C130.69 71.9683 130.545 76.3498 130.503 80.7243L130.482 80.7381Z" fill="white"/>
<path d="M99.5098 158.428C98.2089 158.428 96.8942 158.352 95.5933 158.207C92.0919 157.812 88.6873 156.781 85.4904 155.14C84.0649 154.407 82.6811 153.59 81.4009 152.808L81.1933 152.683C76.4048 149.762 71.0697 148.108 65.7761 147.893H65.6516C64.5514 147.845 63.2296 147.789 61.8734 147.713C60.8562 147.651 59.9497 147.512 59.1124 147.284C57.1818 146.758 55.6871 145.104 55.2996 143.076C55.2235 142.695 55.1613 142.307 55.099 141.927L55.0299 141.504C55.0091 141.38 54.9952 141.241 54.9814 141.11C54.8914 140.473 54.7115 140.3 54.3171 140.12C53.6113 139.802 52.8639 139.532 52.1027 139.317C51.7429 139.213 51.3831 139.116 51.0164 139.019C49.7985 138.694 48.5391 138.348 47.2728 137.898C45.7781 137.365 44.3389 136.721 42.9964 135.995C42.5536 135.752 42.1107 135.482 41.6747 135.185C41.2665 134.901 40.8928 134.596 40.5676 134.257C39.6957 133.351 39.2598 132.195 39.3359 130.997C39.4189 129.8 40.0071 128.713 40.9897 127.924C41.5986 127.439 42.2076 127.149 42.6989 126.906L42.8649 126.823C46.0272 125.273 48.9335 123.48 51.5215 121.487C55.7771 118.206 59.0433 114.565 61.4998 110.35C62.344 108.903 63.1052 107.262 63.7487 105.49C64.1985 104.258 64.4129 103.386 64.4683 102.576C64.4752 102.424 64.4337 102.279 64.3507 102.196C64.067 101.898 63.6587 101.593 63.2228 101.289C62.3509 100.666 61.5689 100.126 60.8354 99.6484C59.7421 98.9286 58.6419 98.2157 57.5486 97.5027L55.4796 96.153C54.4278 95.4608 53.5905 94.8171 52.857 94.1249C52.1166 93.4258 51.5353 92.7128 51.0786 91.9445C49.8746 89.9372 49.7293 87.7223 50.6565 85.535C51.2655 84.0883 52.4142 82.8909 53.805 82.2472C55.3205 81.5481 57.0227 81.3473 58.8495 81.6519C60.3856 81.908 61.7765 82.3717 62.946 82.794C63.7487 83.0847 64.5375 83.3892 65.3332 83.6938C65.527 83.7699 65.7208 83.8461 65.9146 83.9153L65.8869 83.3616C65.8038 81.728 65.7207 80.0322 65.6792 78.3502C65.5547 73.0481 65.5547 67.4069 67.0494 61.8349C67.9767 58.374 69.582 55.1346 71.8171 52.1998C76.135 46.5239 82.0098 42.6062 89.2756 40.5574C92.8876 39.5399 96.7073 39.1107 100.935 39.2353C104.817 39.353 108.526 40.0244 111.958 41.2288C116.415 42.7862 120.248 45.0496 123.362 47.9498C127.41 51.7222 130.102 55.8475 131.597 60.5474C132.254 62.624 132.718 64.832 133.015 67.2892C133.493 71.2831 133.437 75.2562 133.389 79.1047L133.368 80.7659C133.354 81.8319 133.271 82.8632 133.181 83.8668C133.783 83.6384 134.385 83.41 134.96 83.1885C136.212 82.7109 137.34 82.3371 138.406 82.0464C139.769 81.6726 141.395 81.3335 143.159 81.6242C145.201 81.9564 146.979 83.1954 148.031 85.0228C149.062 86.8155 149.235 88.9266 148.515 90.8094C148.162 91.723 147.63 92.5744 146.882 93.405C146.135 94.2357 145.27 94.9832 144.232 95.6892C143.519 96.1737 142.8 96.6444 142.08 97.122L139.935 98.5341C138.911 99.2055 137.88 99.8838 136.863 100.562C136.316 100.929 135.741 101.337 135.167 101.787C134.987 101.926 134.8 102.099 134.62 102.299C134.579 102.348 134.565 102.376 134.565 102.383C134.6 102.992 134.703 103.608 134.89 104.245C135.506 106.383 136.447 108.508 137.783 110.737C140.945 116.012 145.491 120.483 151.691 124.394C152.895 125.155 154.183 125.806 155.546 126.505C155.933 126.699 156.321 126.899 156.701 127.1C156.999 127.252 157.289 127.419 157.573 127.585C158.175 127.938 158.687 128.408 159.096 128.99C159.974 130.243 160.064 131.793 159.345 133.136C158.909 133.939 158.321 134.479 157.919 134.811C157.393 135.247 156.874 135.559 156.48 135.78C154.273 137.033 151.837 138.016 149.228 138.708C148.252 138.964 147.221 139.255 145.997 139.622C145.505 139.767 144.993 140.016 144.557 140.245C144.37 140.342 144.26 140.418 144.184 140.805C144.121 141.117 144.08 141.428 144.031 141.747C143.983 142.065 143.934 142.376 143.879 142.688C143.374 145.491 141.852 147.021 139.07 147.499C138.44 147.609 137.762 147.685 137.056 147.72C136.357 147.762 135.658 147.789 134.953 147.817C134.24 147.845 133.527 147.872 132.821 147.914H132.745C127.701 148.218 122.649 149.824 118.103 152.572L117.328 153.036C115.356 154.227 113.197 155.466 110.789 156.4C108.229 157.397 105.475 158.034 102.603 158.297C101.579 158.387 100.541 158.435 99.5028 158.435L99.5098 158.428ZM60.9323 141.774C61.306 141.857 61.7212 141.906 62.2056 141.934C63.5134 142.01 64.7935 142.065 65.873 142.1H66.0045C72.2807 142.363 78.5707 144.308 84.1964 147.734L84.4179 147.872C85.7742 148.703 86.9297 149.381 88.1199 149.99C90.701 151.313 93.4273 152.143 96.2368 152.455C98.195 152.676 100.16 152.697 102.091 152.524C104.457 152.309 106.623 151.811 108.706 151.001C110.699 150.226 112.595 149.139 114.353 148.08L115.128 147.609C120.477 144.377 126.441 142.487 132.385 142.141H132.503C133.25 142.093 133.991 142.058 134.731 142.03C135.402 142.003 136.081 141.975 136.752 141.94C137.236 141.913 137.693 141.864 138.108 141.795C138.136 141.795 138.156 141.788 138.184 141.781C138.191 141.747 138.198 141.705 138.212 141.657C138.26 141.394 138.295 141.131 138.336 140.868C138.399 140.473 138.454 140.078 138.53 139.691C138.931 137.635 140.108 136.05 141.921 135.109C142.557 134.776 143.415 134.361 144.377 134.077C145.657 133.697 146.737 133.392 147.768 133.122C149.422 132.686 150.986 132.105 152.432 131.399C151.173 130.755 149.885 130.083 148.626 129.287C141.644 124.878 136.482 119.784 132.842 113.713C131.244 111.049 130.102 108.474 129.348 105.843C129.05 104.798 128.87 103.746 128.815 102.708C128.732 101.144 129.272 99.6277 130.344 98.4371C130.752 97.9803 131.195 97.565 131.652 97.2189C132.33 96.6929 133.008 96.2083 133.666 95.7654C134.697 95.0732 135.741 94.3879 136.779 93.7096L138.925 92.2975C139.623 91.8407 140.315 91.3839 141.007 90.9132C141.651 90.4771 142.17 90.0341 142.599 89.5565C142.869 89.252 143.042 88.9959 143.139 88.7398C143.27 88.3937 143.139 88.0683 143.042 87.9091C142.862 87.5977 142.571 87.3831 142.26 87.3347C141.589 87.2239 140.751 87.4108 139.949 87.6323C139.07 87.8745 138.122 88.186 137.049 88.6013C135.928 89.0305 134.731 89.4873 133.527 89.9095C132.87 90.138 132.268 90.2695 131.673 90.3041C130.538 90.3664 129.41 89.958 128.58 89.162C127.715 88.3314 127.237 87.1685 127.258 85.9711C127.265 85.5627 127.279 85.0159 127.334 84.4483L127.382 83.8945C127.486 82.7871 127.583 81.7419 127.597 80.7174L127.618 79.0355C127.666 75.2077 127.715 71.5876 127.286 67.9814C127.036 65.891 126.649 64.0291 126.102 62.3056C124.919 58.5747 122.739 55.2661 119.439 52.1859C116.878 49.7979 113.813 48.0052 110.062 46.6901C107.191 45.6864 104.063 45.1188 100.776 45.0219C97.1433 44.9042 93.8979 45.2711 90.8601 46.1294C84.7431 47.8529 80.0238 50.9885 76.4325 55.7091C74.6541 58.0418 73.3809 60.6166 72.6474 63.3438C71.3535 68.1683 71.3535 73.3388 71.4711 78.2187C71.5057 79.8245 71.5887 81.4788 71.6717 83.0778L71.7548 84.7944C71.7755 85.2789 71.7894 85.7634 71.7963 86.2479C71.8102 88.6082 70.184 90.2418 67.7483 90.3179C67.3193 90.3179 66.994 90.2626 66.8141 90.2279C65.9076 90.0895 65.1395 89.7988 64.5237 89.5704C64.1085 89.4112 63.6933 89.252 63.2781 89.0928C62.5169 88.8021 61.7558 88.5113 60.9946 88.2345C60.0812 87.9022 58.9948 87.5423 57.9222 87.3623C57.0158 87.217 56.5245 87.3762 56.2339 87.5077C56.1647 87.5423 56.0539 87.6461 55.9916 87.7915C55.7633 88.3314 55.8325 88.6221 56.047 88.982C56.2339 89.2935 56.4968 89.605 56.8428 89.9372C57.3203 90.3872 57.8946 90.8301 58.6489 91.3216L60.704 92.6644C61.8111 93.3843 62.9183 94.1041 64.0186 94.8309C64.8143 95.357 65.6516 95.9315 66.5858 96.596C67.2293 97.0597 67.9212 97.565 68.5579 98.2434C69.7411 99.5031 70.357 101.227 70.2394 102.985C70.1218 104.743 69.6097 106.321 69.1807 107.498C68.4126 109.595 67.513 111.54 66.4958 113.284C63.6933 118.088 59.8459 122.393 55.0505 126.09C52.511 128.048 49.6947 129.834 46.6708 131.399C47.4804 131.793 48.3315 132.153 49.2173 132.465C50.2691 132.838 51.3624 133.136 52.5249 133.447C52.8986 133.551 53.2792 133.648 53.6528 133.752C54.6908 134.043 55.7148 134.41 56.6905 134.853C58.9533 135.877 60.3442 137.753 60.6971 140.279C60.7109 140.369 60.7178 140.459 60.7248 140.542V140.528L60.7939 140.978C60.8355 141.248 60.8839 141.518 60.9323 141.781V141.774Z" fill="#1D1D1B"/>
</svg>
