<svg width="198" height="198" viewBox="0 0 198 198" fill="none" xmlns="http://www.w3.org/2000/svg">
<path d="M197.895 98.5763C197.895 44.1743 153.807 0.0727539 99.4209 0.0727539C45.0349 0.0727539 0.946289 44.1743 0.946289 98.5763C0.946289 152.978 45.0349 197.08 99.4209 197.08C153.807 197.08 197.895 152.978 197.895 98.5763Z" fill="#FF0209"/>
<path d="M141.223 142.204C138.289 142.523 135.286 142.578 132.407 142.571C109.953 142.55 87.4982 142.53 65.0506 142.516C57.9856 142.516 50.2909 142.287 44.8312 137.795C38.6796 132.721 37.3995 123.924 36.9013 115.964C36.2093 105.055 36.1539 94.1118 36.7213 83.1962C37.0327 77.2019 37.5794 71.0623 40.1604 65.6357C42.0149 61.7387 45.108 58.2363 49.0661 56.3951C53.6677 54.2563 58.4839 54.637 63.4384 54.6301C75.2988 54.6162 87.1592 54.6093 99.0196 54.5955C111.351 54.5816 123.688 54.5747 136.019 54.5609C141.846 54.5609 148.101 54.6785 152.855 58.0494C158.993 62.3963 160.66 70.6678 161.429 78.1502C162.847 91.9314 162.868 105.858 161.484 119.639C160.91 125.322 159.955 131.33 156.211 135.642C152.502 139.92 147.001 141.567 141.23 142.197L141.223 142.204Z" fill="white"/>
<path d="M119.502 98.5764L86.0382 79.2508V117.902L119.502 98.5764Z" fill="#FF0209"/>
</svg>
